<svg width="395" height="395" viewBox="0 0 395 395" fill="none" xmlns="http://www.w3.org/2000/svg">
<path d="M96.2812 281.437C110.271 270.739 125.906 262.305 143.187 256.133C160.469 249.961 178.573 246.875 197.5 246.875C216.427 246.875 234.531 249.961 251.812 256.133C269.094 262.305 284.729 270.739 298.719 281.437C308.319 270.191 315.794 257.436 321.143 243.172C326.492 228.908 329.167 213.684 329.167 197.5C329.167 161.017 316.343 129.952 290.695 104.305C265.048 78.657 233.983 65.8332 197.5 65.8332C161.017 65.8332 129.952 78.657 104.305 104.305C78.6571 129.952 65.8333 161.017 65.8333 197.5C65.8333 213.684 68.5078 228.908 73.8567 243.172C79.2057 257.436 86.6805 270.191 96.2812 281.437ZM197.5 213.958C181.316 213.958 167.669 208.403 156.56 197.294C145.45 186.185 139.896 172.538 139.896 156.354C139.896 140.17 145.45 126.523 156.56 115.414C167.669 104.305 181.316 98.7498 197.5 98.7498C213.684 98.7498 227.331 104.305 238.44 115.414C249.549 126.523 255.104 140.17 255.104 156.354C255.104 172.538 249.549 186.185 238.44 197.294C227.331 208.403 213.684 213.958 197.5 213.958ZM197.5 362.083C174.733 362.083 153.337 357.763 133.312 349.122C113.288 340.482 95.8698 328.755 81.0573 313.943C66.2448 299.13 54.5182 281.712 45.8776 261.687C37.2369 241.663 32.9166 220.267 32.9166 197.5C32.9166 174.732 37.2369 153.337 45.8776 133.312C54.5182 113.288 66.2448 95.8696 81.0573 81.0571C95.8698 66.2446 113.288 54.5181 133.312 45.8774C153.337 37.2368 174.733 32.9165 197.5 32.9165C220.267 32.9165 241.663 37.2368 261.687 45.8774C281.712 54.5181 299.13 66.2446 313.943 81.0571C328.755 95.8696 340.482 113.288 349.122 133.312C357.763 153.337 362.083 174.732 362.083 197.5C362.083 220.267 357.763 241.663 349.122 261.687C340.482 281.712 328.755 299.13 313.943 313.943C299.13 328.755 281.712 340.482 261.687 349.122C241.663 357.763 220.267 362.083 197.5 362.083Z" fill="#00C2FF"/>
</svg>
