<svg width="395" height="395" viewBox="0 0 395 395" fill="none" xmlns="http://www.w3.org/2000/svg">
<path d="M197.5 345.625L173.635 324.229C145.931 299.268 123.026 277.735 104.922 259.63C86.8177 241.526 72.4166 225.342 61.7187 211.078C51.0208 196.54 43.4774 183.236 39.0885 171.167C34.9739 159.097 32.9166 146.754 32.9166 134.136C32.9166 108.351 41.5573 86.8179 58.8385 69.5366C76.1198 52.2554 97.6527 43.6147 123.437 43.6147C137.701 43.6147 151.279 46.6321 164.172 52.6668C177.064 58.7016 188.174 67.205 197.5 78.1773C206.826 67.205 217.936 58.7016 230.828 52.6668C243.72 46.6321 257.299 43.6147 271.562 43.6147C297.347 43.6147 318.88 52.2554 336.161 69.5366C353.443 86.8179 362.083 108.351 362.083 134.136C362.083 146.754 359.889 159.097 355.5 171.167C351.385 183.236 343.979 196.54 333.281 211.078C322.583 225.342 308.182 241.526 290.078 259.63C271.974 277.735 249.069 299.268 221.365 324.229L197.5 345.625ZM197.5 301.188C223.833 277.597 245.503 257.436 262.51 240.703C279.517 223.696 292.958 209.021 302.833 196.677C312.708 184.059 319.566 172.95 323.406 163.349C327.247 153.474 329.167 143.736 329.167 134.136C329.167 117.677 323.681 103.962 312.708 92.9898C301.736 82.0175 288.021 76.5314 271.562 76.5314C258.67 76.5314 246.738 80.2346 235.766 87.6408C224.793 94.7727 217.25 103.962 213.135 115.209H181.865C177.75 103.962 170.207 94.7727 159.234 87.6408C148.262 80.2346 136.33 76.5314 123.437 76.5314C106.979 76.5314 93.2638 82.0175 82.2916 92.9898C71.3194 103.962 65.8333 117.677 65.8333 134.136C65.8333 143.736 67.7534 153.474 71.5937 163.349C75.434 172.95 82.2916 184.059 92.1666 196.677C102.042 209.021 115.483 223.696 132.49 240.703C149.497 257.436 171.167 277.597 197.5 301.188Z" fill="#00C2FF"/>
</svg>
